<svg width="140" height="140" viewBox="0 0 140 140" fill="none" xmlns="http://www.w3.org/2000/svg">
  <g fill="#d26323">
    <path d="M-20 1493H401L741 961L1081 1493H1503L934 629V0H549V629Z" transform="translate(19.50,61) scale(0.015625,-0.015625)"/>
    <path d="M870 1241Q694 1241 597.0 1111.0Q500 981 500 745Q500 510 597.0 380.0Q694 250 870 250Q1047 250 1144.0 380.0Q1241 510 1241 745Q1241 981 1144.0 1111.0Q1047 1241 870 1241ZM870 1520Q1230 1520 1434.0 1314.0Q1638 1108 1638 745Q1638 383 1434.0 177.0Q1230 -29 870 -29Q511 -29 306.5 177.0Q102 383 102 745Q102 1108 306.5 1314.0Q511 1520 870 1520Z" transform="translate(42.67,61) scale(0.015625,-0.015625)"/>
    <path d="M188 1493H573V598Q573 413 633.5 333.5Q694 254 831 254Q969 254 1029.5 333.5Q1090 413 1090 598V1493H1475V598Q1475 281 1316.0 126.0Q1157 -29 831 -29Q506 -29 347.0 126.0Q188 281 188 598Z" transform="translate(69.88,61) scale(0.015625,-0.015625)"/>
    <path d="M735 831Q856 831 908.5 876.0Q961 921 961 1024Q961 1126 908.5 1170.0Q856 1214 735 1214H573V831ZM573 565V0H188V1493H776Q1071 1493 1208.5 1394.0Q1346 1295 1346 1081Q1346 933 1274.5 838.0Q1203 743 1059 698Q1138 680 1200.5 616.5Q1263 553 1327 424L1536 0H1126L944 371Q889 483 832.5 524.0Q776 565 682 565Z" transform="translate(95.86,61) scale(0.015625,-0.015625)"/>
    <path d="M188 1493H573V291H1249V0H188Z" transform="translate(19.47,101) scale(0.015625,-0.015625)"/>
    <path d="M870 1241Q694 1241 597.0 1111.0Q500 981 500 745Q500 510 597.0 380.0Q694 250 870 250Q1047 250 1144.0 380.0Q1241 510 1241 745Q1241 981 1144.0 1111.0Q1047 1241 870 1241ZM870 1520Q1230 1520 1434.0 1314.0Q1638 1108 1638 745Q1638 383 1434.0 177.0Q1230 -29 870 -29Q511 -29 306.5 177.0Q102 383 102 745Q102 1108 306.5 1314.0Q511 1520 870 1520Z" transform="translate(39.86,101) scale(0.015625,-0.015625)"/>
    <path d="M1530 111Q1386 41 1231.0 6.0Q1076 -29 911 -29Q538 -29 320.0 179.5Q102 388 102 745Q102 1106 324.0 1313.0Q546 1520 932 1520Q1081 1520 1217.5 1492.0Q1354 1464 1475 1409V1100Q1350 1171 1226.5 1206.0Q1103 1241 979 1241Q749 1241 624.5 1112.5Q500 984 500 745Q500 508 620.0 379.0Q740 250 961 250Q1021 250 1072.5 257.5Q1124 265 1165 281V571H930V829H1530Z" transform="translate(67.06,101) scale(0.015625,-0.015625)"/>
    <path d="M870 1241Q694 1241 597.0 1111.0Q500 981 500 745Q500 510 597.0 380.0Q694 250 870 250Q1047 250 1144.0 380.0Q1241 510 1241 745Q1241 981 1144.0 1111.0Q1047 1241 870 1241ZM870 1520Q1230 1520 1434.0 1314.0Q1638 1108 1638 745Q1638 383 1434.0 177.0Q1230 -29 870 -29Q511 -29 306.5 177.0Q102 383 102 745Q102 1108 306.5 1314.0Q511 1520 870 1520Z" transform="translate(93.33,101) scale(0.015625,-0.015625)"/>
  </g>
</svg>